<svg xmlns="http://www.w3.org/2000/svg" viewBox="0 0 64 64">
  <defs>
    <linearGradient id="mg" x1="0%" y1="50%" x2="100%" y2="50%">
      <stop offset="0%" stop-color="#ff00f7"/>
      <stop offset="50%" stop-color="#7000ff"/>
      <stop offset="100%" stop-color="#00d4ff"/>
    </linearGradient>
    <filter id="glow">
      <feGaussianBlur stdDeviation="1.5" result="blur"/>
      <feComposite in="SourceGraphic" in2="blur" operator="over"/>
    </filter>
  </defs>
  <rect width="64" height="64" rx="14" fill="#0f0f14"/>
  <g transform="rotate(-6 32 32)" filter="url(#glow)">
    <g transform="translate(32,32) scale(0.02158,-0.02158) translate(-1193,-756)">
      <path fill="url(#mg)" d="M1013 900V0H941V900Q941 929 931.5 949.5Q922 970 907.0 981.0Q892 992 867.5 998.5Q843 1005 820.0 1006.5Q797 1008 763.0 1008.0Q729 1008 706.0 1006.5Q683 1005 658.5 998.5Q634 992 619.0 981.0Q604 970 594.5 949.5Q585 929 585 900V0H513V900Q513 1080 763.0 1080.0Q1013 1080 1013 900ZM1157 900V0H1085V900Q1085 1027 995.5 1089.5Q906 1152 763.0 1152.0Q620 1152 530.5 1089.5Q441 1027 441 900V0H369V900Q369 1005 423.0 1080.0Q477 1155 564.5 1189.5Q652 1224 763.0 1224.0Q874 1224 961.5 1189.5Q1049 1155 1103.0 1080.0Q1157 1005 1157 900ZM1301 900V0H1229V900Q1229 994 1192.5 1070.0Q1156 1146 1092.0 1195.0Q1028 1244 944.0 1270.0Q860 1296 763.0 1296.0Q666 1296 582.0 1270.0Q498 1244 434.0 1195.0Q370 1146 333.5 1070.0Q297 994 297 900V0H225V900Q225 1009 267.5 1098.0Q310 1187 383.0 1245.5Q456 1304 554.0 1336.0Q652 1368 763.0 1368.0Q874 1368 972.0 1336.0Q1070 1304 1143.0 1245.5Q1216 1187 1258.5 1098.0Q1301 1009 1301 900ZM1445 0H1373V900Q1373 1009 1324.5 1109.0Q1276 1209 1194.0 1281.5Q1112 1354 999.0 1397.0Q886 1440 763 1440Q594 1440 456.5 1376.5Q319 1313 236.0 1188.5Q153 1064 153 900V0H81V900Q81 1038 135.0 1154.0Q189 1270 281.5 1348.0Q374 1426 498.5 1469.0Q623 1512 763 1512Q1011 1512 1193 1387Q1375 1512 1623 1512Q1763 1512 1887.5 1469.0Q2012 1426 2104.5 1348.0Q2197 1270 2251.0 1154.0Q2305 1038 2305 900V0H2233V900Q2233 1063 2150.0 1187.5Q2067 1312 1929.5 1376.0Q1792 1440 1623 1440Q1411 1440 1253 1340Q1276 1320 1304 1288Q1441 1368 1623 1368Q1734 1368 1832.0 1336.0Q1930 1304 2003.0 1245.5Q2076 1187 2118.5 1098.0Q2161 1009 2161 900V0H2089V900Q2089 994 2052.5 1070.0Q2016 1146 1952.0 1195.0Q1888 1244 1804.0 1270.0Q1720 1296 1623 1296Q1464 1296 1348 1231Q1366 1203 1384 1169Q1482 1224 1623 1224Q1734 1224 1821.5 1189.5Q1909 1155 1963.0 1080.0Q2017 1005 2017 900V0H1945V900Q1945 1027 1855.5 1089.5Q1766 1152 1623 1152Q1493 1152 1412 1104Q1425 1066 1432 1032Q1495 1080 1623 1080Q1873 1080 1873 900V0H1801V900Q1801 929 1791.5 949.5Q1782 970 1767.0 981.0Q1752 992 1727.5 998.5Q1703 1005 1680.0 1006.5Q1657 1008 1623.0 1008.0Q1589 1008 1566.0 1006.5Q1543 1005 1518.5 998.5Q1494 992 1479.0 981.0Q1464 970 1454.5 949.5Q1445 929 1445 900Z"/>
    </g>
  </g>
</svg>
